Coordinates
version=1
nRows=26
nColumns=22
inDegrees=yes

Units are S.I. units (second, meters, Newtons, ...)
If the header above contains a line with 'inDegrees', this indicates whether rotational values are in degrees (yes) or radians (no).

endheader
time	pelvis_tilt	pelvis_list	pelvis_rotation	pelvis_tx	pelvis_ty	pelvis_tz	hip_flexion_r	hip_adduction_r	hip_rotation_r	knee_angle_r	ankle_angle_r	subtalar_angle_r	hip_flexion_l	hip_adduction_l	hip_rotation_l	knee_angle_l	ankle_angle_l	subtalar_angle_l	lumbar_extension	lumbar_bending	lumbar_rotation
      5.62000000	     -3.52739380	     -1.43854199	    276.43452026	     -0.52530478	      0.93058261	      0.62421474	      7.54908005	     -2.95461221	     -2.44320712	    -64.62317527	     -4.48351096	     13.33791542	     25.68070955	      3.73229714	     -6.96166365	    -30.22962745	      2.71936371	    -15.00482503	     -2.35095543	      2.45747013	     -6.11041275
      5.63000000	     -3.30862279	     -1.59834062	    277.72583563	     -0.52066609	      0.93159483	      0.63296703	      8.94472510	     -3.02274212	     -2.27547304	    -66.58731346	     -3.75189761	     13.08667218	     24.76869194	      4.56597237	     -6.01597346	    -30.02264235	      3.16926541	    -14.99275309	     -2.42495899	      2.25768689	     -6.68004031
      5.64000000	     -3.08805912	     -1.76530438	    279.04825780	     -0.51589024	      0.93267499	      0.64159922	     10.30237806	     -3.12171053	     -2.16429232	    -68.32028446	     -2.89110832	     12.77256453	     23.80653970	      5.37749366	     -5.03797999	    -29.77865425	      3.64054943	    -14.94824873	     -2.50201397	      2.07934549	     -7.21142916
      5.65000000	     -2.85075145	     -1.93400853	    280.37988095	     -0.51099045	      0.93386083	      0.65015333	     11.61273195	     -3.24455480	     -2.03290128	    -69.80794415	     -1.90419199	     12.53829098	     22.76372912	      6.17367822	     -4.05589617	    -29.43672518	      4.02830080	    -14.98049446	     -2.57237500	      1.91115413	     -7.74974108
      5.66000000	     -2.62238674	     -2.09010637	    281.72729450	     -0.50597281	      0.93508163	      0.65856750	     12.90304557	     -3.37198936	     -1.89822729	    -71.06001669	     -0.90830601	     12.10684066	     21.68630189	      6.94228153	     -3.00063359	    -29.04204867	      4.38763493	    -14.95082264	     -2.62634693	      1.77279371	     -8.22274328
      5.67000000	     -2.38936953	     -2.24265521	    283.05798056	     -0.50089857	      0.93634275	      0.66689041	     14.14990393	     -3.49088339	     -1.69526375	    -72.07140291	      0.14715144	     11.52227387	     20.55398175	      7.66675974	     -1.97176808	    -28.57844283	      4.73082466	    -14.95464441	     -2.67078663	      1.65220043	     -8.68112588
      5.68000000	     -2.15590365	     -2.38379734	    284.38182126	     -0.49575615	      0.93761192	      0.67508920	     15.36098414	     -3.60123207	     -1.43189167	    -72.84590739	      1.21192052	     10.90227253	     19.38017933	      8.35943416	     -0.90435695	    -28.05140261	      5.01029745	    -15.00046344	     -2.70374062	      1.54604011	     -9.07906088
      5.69000000	     -1.92221664	     -2.51564296	    285.69741770	     -0.49056846	      0.93886828	      0.68315186	     16.52904431	     -3.69522726	     -1.10267524	    -73.38696134	      2.26565144	     10.23335318	     18.17196213	      9.01703764	      0.20172375	    -27.47589442	      5.23099670	    -15.06582086	     -2.73004032	      1.45117447	     -9.42538924
      5.70000000	     -1.68990049	     -2.64684194	    286.99506019	     -0.48535449	      0.94010431	      0.69112724	     17.62822451	     -3.76434110	     -0.70830360	    -73.68423304	      3.30577483	      9.39393658	     16.92140495	      9.62054053	      1.28169469	    -26.85186587	      5.47310019	    -15.16814240	     -2.75347394	      1.37129634	     -9.75458661
      5.71000000	     -1.46136814	     -2.77396942	    288.29517767	     -0.48010708	      0.94129397	      0.69895928	     18.66456373	     -3.81323352	     -0.26943644	    -73.75195954	      4.26565368	      8.57550225	     15.64822405	     10.18607240	      2.42142728	    -26.20570657	      5.67528491	    -15.29286583	     -2.77894583	      1.30207892	    -10.05375943
      5.72000000	     -1.23994895	     -2.89673747	    289.59726291	     -0.47484196	      0.94241574	      0.70666657	     19.63172701	     -3.83990606	      0.20064517	    -73.59593322	      5.13860597	      7.70400264	     14.36351500	     10.70466220	      3.59862403	    -25.55209412	      5.86353777	    -15.44008217	     -2.80355218	      1.24392548	    -10.33938130
      5.73000000	     -1.03459891	     -3.03064451	    290.91737407	     -0.46955246	      0.94348263	      0.71425029	     20.51096233	     -3.83291604	      0.67681170	    -73.22394158	      5.88815406	      6.87263556	     13.06254640	     11.16845107	      4.85721321	    -24.90823572	      6.02673053	    -15.59660981	     -2.83960362	      1.20879359	    -10.62526708
      5.74000000	     -0.83842600	     -3.16057971	    292.24763278	     -0.46427876	      0.94445000	      0.72173331	     21.31497580	     -3.80098899	      1.15717616	    -72.65114937	      6.56574418	      5.98809181	     11.77541569	     11.57882059	      6.13898698	    -24.29527076	      6.21529766	    -15.77924710	     -2.87386285	      1.17782994	    -10.91735968
      5.75000000	     -0.65858122	     -3.28994110	    293.59537712	     -0.45901181	      0.94531526	      0.72909596	     22.04923276	     -3.73830733	      1.62977793	    -71.89597084	      7.17682555	      5.18851743	     10.50652528	     11.93564586	      7.48481416	    -23.72102008	      6.39769192	    -15.97232684	     -2.90747285	      1.16245437	    -11.22674137
      5.76000000	     -0.47469702	     -3.41816598	    294.94951092	     -0.45378877	      0.94607173	      0.73639053	     22.70737575	     -3.65816418	      2.10073363	    -70.97454437	      7.75393460	      4.38006718	      9.25516517	     12.24962749	      8.83740643	    -23.19379392	      6.62080439	    -16.21058084	     -2.94400110	      1.13219539	    -11.53700598
      5.77000000	     -0.31443571	     -3.55276363	    296.32419283	     -0.44861036	      0.94673849	      0.74355908	     23.29872728	     -3.52992640	      2.55570781	    -69.89299225	      8.25486720	      3.80145897	      8.03803003	     12.49913689	     10.24786886	    -22.73190734	      6.79142121	    -16.44962285	     -2.98746563	      1.12246236	    -11.85289187
      5.78000000	     -0.14640105	     -3.67412222	    297.69716986	     -0.44348058	      0.94728033	      0.75065034	     23.83930623	     -3.39460194	      3.00965340	    -68.67758719	      8.72257861	      3.28964158	      6.84742912	     12.71592155	     11.65703698	    -22.30737680	      6.97922773	    -16.73947802	     -3.02491196	      1.09138507	    -12.17285516
      5.79000000	      0.00944799	     -3.79252754	    299.06965653	     -0.43840244	      0.94771485	      0.75764289	     24.33269018	     -3.22503335	      3.45787376	    -67.33643799	      9.11630499	      2.93555709	      5.69052838	     12.88058591	     13.08577554	    -21.93384773	      7.14113269	    -17.04207866	     -3.06105516	      1.06547862	    -12.47921810
      5.80000000	      0.16329689	     -3.89434702	    300.42462924	     -0.43337717	      0.94803198	      0.76456707	     24.79317013	     -3.03793162	      3.91005673	    -65.88356607	      9.44158716	      2.68218739	      4.56698918	     13.00447346	     14.49290705	    -21.58868670	      7.29925183	    -17.36388918	     -3.08484721	      1.02755757	    -12.77283680
      5.81000000	      0.31707711	     -3.97672345	    301.75395757	     -0.42839424	      0.94823365	      0.77143193	     25.22682781	     -2.83704999	      4.37072435	    -64.33146923	      9.69562390	      2.52839223	      3.47727894	     13.09268472	     15.86584769	    -21.26753486	      7.46702344	    -17.68789247	     -3.09263519	      0.97393050	    -13.04465545
      5.82000000	      0.46493308	     -4.03650604	    303.04709073	     -0.42344143	      0.94833162	      0.77825822	     25.63711517	     -2.62163832	      4.83917013	    -62.68117204	      9.87792913	      2.48176812	      2.42362572	     13.14067449	     17.18001079	    -20.95726951	      7.64988741	    -17.98133992	     -3.07681931	      0.90939305	    -13.29918978
      5.83000000	      0.60480570	     -4.06689514	    304.29995968	     -0.41851203	      0.94831822	      0.78503792	     26.03267999	     -2.39978173	      5.31332321	    -60.93878270	      9.99521063	      2.53419053	      1.42055152	     13.15737459	     18.43048482	    -20.66775422	      7.86987768	    -18.22486801	     -3.03218017	      0.83086692	    -13.53050752
      5.84000000	      0.75014775	     -4.11553060	    305.48893602	     -0.41362688	      0.94828972	      0.79179500	     26.35335568	     -2.14677666	      5.80871729	    -59.09097702	     10.06026199	      2.70625793	      0.41536425	     13.12821574	     19.59328214	    -20.38923449	      8.10477255	    -18.44465581	     -3.01887198	      0.75451478	    -13.68350515
      5.85000000	      0.86749280	     -4.11991933	    306.64157695	     -0.40873354	      0.94812992	      0.79849748	     26.67924852	     -1.89976485	      6.28207442	    -57.15240108	     10.07934834	      2.95382212	     -0.50744086	     13.06994396	     20.66849515	    -20.13498373	      8.37268566	    -18.59588295	     -2.94934164	      0.67820513	    -13.87059829
      5.86000000	      0.98887561	     -4.14455206	    307.72676366	     -0.40387948	      0.94794502	      0.80515234	     26.93192540	     -1.63456794	      6.76014970	    -55.11649621	     10.07264795	      3.36293859	     -1.41880863	     12.98133001	     21.65455853	    -19.91329861	      8.64886660	    -18.71879717	     -2.91761730	      0.60920705	    -13.96527540
      5.87000000	      1.08951133	     -4.14708826	    308.77201188	     -0.39903340	      0.94764158	      0.81172929	     27.16923219	     -1.38049494	      7.20255122	    -52.99858040	     10.03841307	      3.82425557	     -2.25938485	     12.87464797	     22.55114862	    -19.73548945	      8.94200046	    -18.82008979	     -2.86478522	      0.54911172	    -14.08221731
